<?xml version="1.0" encoding="utf-8"?>
<!-- Generator: Adobe Illustrator 25.0.1, SVG Export Plug-In . SVG Version: 6.00 Build 0)  -->
<svg version="1.0" id="Layer_1" xmlns="http://www.w3.org/2000/svg" xmlns:xlink="http://www.w3.org/1999/xlink" x="0px" y="0px"
	 viewBox="0 0 461.5 329.8" style="enable-background:new 0 0 461.5 329.8;" xml:space="preserve">
<style type="text/css">
	.st0{fill:#FFFFFF;}
	.st1{fill:#231F20;}
</style>
<g>
	<g>
		<g>
			<g>
				<path class="st0" d="M143.5,103.7v5.7c0,0-10.2-3.8-16.8,3.1c-4.8,5-5.2,10.6-3,18.1c21.6,0,25,12.1,25,12.1l-2.2-13.9l6.8-8.3
					l0,0C153.3,110.7,145.2,104.2,143.5,103.7z"/>
			</g>
			<g>
				<path class="st0" d="M147.1,145.4"/>
			</g>
			<g>
				<circle cx="145.4" cy="117.7" r="2.6"/>
			</g>
			<g>
				<g>
					<path d="M148.7,142.7c0,0-3.3-16.6-24.9-12.1c-2.2-7.5-1.8-13,3-18.1c6.5-6.9,16.7-3.1,16.7-3.1v-5.7c-3.6-1.6-7-1.9-10.8-1.9
						c-13.9,0-21.6,10.4-24.9,17.4l-39.1,71.9l11-2.1l-20.2,39l14.1-2.5l10.8-30.7C115,194.8,154.2,183.8,148.7,142.7z"/>
				</g>
			</g>
			<g>
				<polygon points="161.9,128.8 153.3,120.5 146.5,128.8 				"/>
			</g>
			<g>
				<path class="st0" d="M89.5,185.9c0,0,1-0.2,2.8-0.6c1.8-0.4,4.3-1,7.3-1.8c1.5-0.4,3.1-0.9,4.8-1.5c1.7-0.6,3.5-1.2,5.2-2
					c1.8-0.7,3.6-1.6,5.4-2.6s3.5-2.1,5.1-3.4c0.4-0.3,0.8-0.6,1.2-1l1.2-1c0.7-0.7,1.5-1.4,2.2-2.2c0.7-0.7,1.3-1.5,1.9-2.3
					c0.3-0.4,0.6-0.8,0.9-1.2l0.4-0.6l0.4-0.6c0.2-0.4,0.5-0.8,0.7-1.2c0.2-0.4,0.4-0.8,0.7-1.2c0.1-0.2,0.2-0.4,0.3-0.6
					s0.2-0.4,0.3-0.6c0.2-0.4,0.4-0.8,0.5-1.2c0.3-0.8,0.6-1.6,0.9-2.4c0.2-0.8,0.5-1.6,0.7-2.3c0.2-0.7,0.3-1.5,0.5-2.1
					c0.1-0.7,0.2-1.3,0.3-2c0.1-0.6,0.2-1.2,0.2-1.7c0.1-0.5,0.1-1,0.2-1.5c0.1-1.8,0.1-2.8,0.1-2.8l1.6,0.1c0,0-0.1,1.1-0.2,2.9
					c-0.1,0.5-0.1,1-0.2,1.5c-0.1,0.6-0.1,1.2-0.3,1.8c-0.1,0.6-0.3,1.3-0.4,2c-0.2,0.7-0.4,1.4-0.6,2.2c-0.2,0.8-0.5,1.5-0.8,2.4
					c-0.3,0.8-0.6,1.6-1,2.5c-0.2,0.4-0.4,0.8-0.6,1.2c-0.1,0.2-0.2,0.4-0.3,0.6s-0.2,0.4-0.3,0.6c-0.2,0.4-0.5,0.8-0.7,1.3
					c-0.3,0.4-0.5,0.8-0.8,1.2c-0.1,0.2-0.3,0.4-0.4,0.6l-0.4,0.6c-0.3,0.4-0.6,0.8-0.9,1.2c-0.7,0.8-1.3,1.6-2.1,2.3
					c-0.7,0.8-1.5,1.4-2.3,2.2l-1.2,1c-0.4,0.3-0.8,0.6-1.3,0.9c-1.7,1.2-3.5,2.3-5.3,3.3c-1.8,0.9-3.7,1.8-5.5,2.5
					c-1.8,0.7-3.6,1.3-5.3,1.8c-1.7,0.5-3.3,1-4.9,1.3c-3,0.7-5.6,1.3-7.4,1.6C90.5,185.7,89.5,185.9,89.5,185.9z"/>
			</g>
		</g>
	</g>
	<g>
		<path class="st1" d="M186.5,185.7h-8.8l-12.6-36.4h7.9l9,27.5l9-27.5h7.9l9,27.5l9-27.5h7.9l-12.3,36.4h-8.8l-8.6-24.9
			L186.5,185.7z"/>
		<path class="st1" d="M259.6,185.7h-7v-4.9c-3,3.6-7,5.4-12.1,5.4c-3.8,0-6.9-1.1-9.4-3.2c-2.5-2.1-3.7-5-3.7-8.6s1.3-6.3,4-8
			c2.6-1.8,6.2-2.7,10.7-2.7h9.9v-1.4c0-4.8-2.7-7.3-8.1-7.3c-3.4,0-6.9,1.2-10.5,3.7l-3.4-4.8c4.4-3.5,9.4-5.3,15.1-5.3
			c4.3,0,7.8,1.1,10.5,3.2c2.7,2.2,4.1,5.6,4.1,10.2v23.7H259.6z M251.9,172.1V169h-8.6c-5.5,0-8.3,1.7-8.3,5.2
			c0,1.8,0.7,3.1,2.1,4.1c1.4,0.9,3.3,1.4,5.7,1.4s4.6-0.7,6.4-2.1C251,176.3,251.9,174.5,251.9,172.1z"/>
		<path class="st1" d="M301.2,149.3V181c0,6.4-1.7,11.3-5.2,14.5s-8,4.8-13.4,4.8c-5.5,0-10.4-1.7-14.8-5.1l3.6-5.8
			c3.6,2.7,7.1,4,10.8,4c3.6,0,6.5-0.9,8.6-2.8c2.1-1.9,3.2-4.9,3.2-9v-4.7c-1.1,2.1-2.8,3.9-4.9,5.1c-2.1,1.3-4.5,1.9-7.1,1.9
			c-4.8,0-8.8-1.7-11.9-5.1c-3.1-3.4-4.7-7.6-4.7-12.6s1.6-9.2,4.7-12.6c3.1-3.4,7.1-5.1,11.9-5.1c4.8,0,8.7,2,11.7,6v-5.4h7.5
			V149.3z M272.8,166.1c0,3,0.9,5.6,2.8,7.7c1.8,2.2,4.3,3.2,7.5,3.2c3.1,0,5.7-1,7.6-3.1c1.9-2.1,2.9-4.7,2.9-7.8s-1-5.8-2.9-7.9
			c-2-2.2-4.5-3.2-7.6-3.2s-5.6,1.1-7.4,3.4C273.7,160.5,272.8,163.1,272.8,166.1z"/>
		<path class="st1" d="M320.4,155.4v18.5c0,1.7,0.5,3.1,1.4,4.1s2.2,1.5,3.8,1.5c1.6,0,3.2-0.8,4.7-2.4l3.1,5.4
			c-2.7,2.4-5.7,3.6-8.9,3.6c-3.3,0-6-1.1-8.3-3.4s-3.5-5.3-3.5-9.1v-18.2h-4.6v-6.2h4.6v-11.3h7.7v11.4h9.6v6.2h-9.6V155.4z"/>
		<path class="st1" d="M369,185.7h-7v-4.9c-3,3.6-7,5.4-12.1,5.4c-3.8,0-6.9-1.1-9.4-3.2c-2.5-2.1-3.7-5-3.7-8.6s1.3-6.3,4-8
			c2.6-1.8,6.2-2.7,10.7-2.7h9.9v-1.4c0-4.8-2.7-7.3-8.1-7.3c-3.4,0-6.9,1.2-10.5,3.7l-3.4-4.8c4.4-3.5,9.4-5.3,15.1-5.3
			c4.3,0,7.8,1.1,10.5,3.2c2.7,2.2,4.1,5.6,4.1,10.2v23.7H369z M361.3,172.1V169h-8.6c-5.5,0-8.3,1.7-8.3,5.2c0,1.8,0.7,3.1,2.1,4.1
			c1.4,0.9,3.3,1.4,5.7,1.4c2.4,0,4.6-0.7,6.4-2.1C360.4,176.3,361.3,174.5,361.3,172.1z"/>
		<path class="st1" d="M378.8,142c-1-1-1.4-2.1-1.4-3.4s0.5-2.5,1.4-3.4c1-1,2.1-1.4,3.4-1.4s2.5,0.5,3.4,1.4c1,1,1.4,2.1,1.4,3.4
			c0,1.3-0.5,2.5-1.4,3.4c-0.9,0.9-2.1,1.4-3.4,1.4C380.9,143.5,379.8,143,378.8,142z M386,185.7h-7.7v-36.4h7.7V185.7z"/>
		<path class="st1" d="M402,185.7h-7.7v-50.8h7.7V185.7z"/>
	</g>
</g>
</svg>
